<svg width="640" height="480" xmlns="http://www.w3.org/2000/svg" xmlns:svg="http://www.w3.org/2000/svg">
    <!-- Created with SVG-edit - https://github.com/SVG-Edit/svgedit-->
    <g class="layer">
     <title>Layer 1</title>
     <path d="m295,391l27,0l2,-109l-30,0l1,109z" fill="#7f3f00" id="svg_18" stroke="#000000" stroke-dasharray="null" stroke-linecap="null" stroke-linejoin="null" stroke-opacity="null"/>
     <path d="m308,281c76,0 77,0 76,-1c-1,-1 -39,-28 -39,-28c0,0 38,2 39,1c1,-1 -42,-33 -42,-33c0,0 36,0 36,0c0,0 -42,-35 -42,-35c0,0 36,0 36,0c0,0 -49,-45 -49,-45" fill="#7fff00" id="svg_20" stroke="#000000" stroke-dasharray="null" stroke-linecap="null" stroke-linejoin="null" stroke-opacity="null" transform="matrix(1, 0, 0, 1, 0, 0)"/>
     <path d="m308,280l-61,1l39,-27l-39,-1l45,-29l-43,0l46,-28l-33,1l61,-56" fill="#7fff00" id="svg_22" stroke="#000000" stroke-dasharray="null" stroke-linecap="null" stroke-linejoin="null" stroke-opacity="null" transform="matrix(1, 0, 0, 1, 0, 0)"/>
     <rect fill="#aaffaa" height="89" id="svg_24" stroke="#000000" stroke-dasharray="null" stroke-linecap="null" stroke-linejoin="null" stroke-opacity="null" width="638" x="1" y="392"/>
    </g>
   </svg>